/* XPM */
static char *d9fd5c1afa184343b786ce0800274fb59GXz6rkX0qjXakDr[] = {
/* columns rows colors chars-per-pixel */
"60 60 241 2 ",
"   c #020202",
".  c #090102",
"X  c #010800",
"o  c #03010B",
"O  c #0A010B",
"+  c #00090B",
"@  c #100201",
"#  c #020012",
"$  c #0E0012",
"%  c #3D5514",
"&  c #37541E",
"*  c #3C541C",
"=  c #3B591C",
"-  c #3A5B1A",
";  c #3C5114",
":  c #3D6119",
">  c #3D4F23",
",  c #344F22",
"<  c #355323",
"1  c #3C5524",
"2  c #3E5B24",
"3  c #3B542B",
"4  c #3D5B2B",
"5  c #33582B",
"6  c #3E5633",
"7  c #3A6122",
"8  c #3E6631",
"9  c #455709",
"0  c #435A16",
"q  c #43561D",
"w  c #435A1D",
"e  c #4C5D1D",
"r  c #4D5B16",
"t  c #57521B",
"y  c #46621C",
"u  c #4D651F",
"i  c #4B691C",
"p  c #536914",
"a  c #52641D",
"s  c #5D671F",
"d  c #536C1B",
"f  c #596A1B",
"g  c #5C741C",
"h  c #59761C",
"j  c #646D1F",
"k  c #63731C",
"l  c #657A1E",
"z  c #425524",
"x  c #445C24",
"c  c #4B5C23",
"v  c #42552A",
"b  c #445C2C",
"n  c #4A5D2B",
"m  c #4C5527",
"M  c #515B25",
"N  c #505D28",
"B  c #434631",
"V  c #415534",
"C  c #435C32",
"Z  c #465C39",
"A  c #575A31",
"S  c #474D29",
"D  c #446225",
"F  c #4C6324",
"G  c #4E6A26",
"H  c #46632C",
"J  c #4C642B",
"K  c #4D6A2C",
"L  c #456A2D",
"P  c #526424",
"I  c #546B25",
"U  c #5B6D25",
"Y  c #52652B",
"T  c #5A652B",
"R  c #546B2C",
"E  c #5B6D2C",
"W  c #5B6125",
"Q  c #567324",
"!  c #5C7324",
"~  c #5C7822",
"^  c #56732C",
"/  c #5C732C",
"(  c #5C782E",
")  c #577B24",
"_  c #446232",
"`  c #4C6333",
"'  c #4D6A32",
"]  c #4E653A",
"[  c #4C6939",
"{  c #526532",
"}  c #546C33",
"|  c #5B6D33",
" . c #566C39",
".. c #5A6D3A",
"X. c #586438",
"o. c #557232",
"O. c #5C7333",
"+. c #5D7933",
"@. c #557339",
"#. c #5C733B",
"$. c #5D7A3B",
"%. c #577831",
"&. c #4E7D37",
"*. c #616D2E",
"=. c #6C6D2E",
"-. c #68692A",
";. c #637425",
":. c #6C7524",
">. c #637A25",
",. c #6C7C25",
"<. c #62752D",
"1. c #6B752B",
"2. c #647B2C",
"3. c #6B7C2C",
"4. c #737C2C",
"5. c #727729",
"6. c #626E33",
"7. c #626D3A",
"8. c #6F6C39",
"9. c #706A30",
"0. c #627533",
"q. c #6A7433",
"w. c #647B33",
"e. c #6B7C34",
"r. c #63753A",
"t. c #6A753C",
"y. c #647A3A",
"u. c #6C7C3A",
"i. c #717D34",
"p. c #717D3B",
"a. c #7A7E3C",
"s. c #767A37",
"d. c #5C6F45",
"f. c #506441",
"g. c #597343",
"h. c #5A7544",
"j. c #617542",
"k. c #6E7D41",
"l. c #667845",
"z. c #767D44",
"x. c #686544",
"c. c #807537",
"v. c #6A821E",
"b. c #73851F",
"n. c #668026",
"m. c #6C8423",
"M. c #67812D",
"N. c #6C822D",
"B. c #6D8B2C",
"V. c #698927",
"C. c #748A24",
"Z. c #74832D",
"A. c #7B832D",
"S. c #748B2C",
"D. c #7B8B2D",
"F. c #778624",
"G. c #79922F",
"H. c #658134",
"J. c #6C8334",
"K. c #6E8A35",
"L. c #6D833A",
"P. c #6E893C",
"I. c #64813B",
"U. c #738333",
"Y. c #7A8535",
"T. c #758A34",
"R. c #7B8A34",
"E. c #74843B",
"W. c #7B853A",
"Q. c #758A3A",
"!. c #7C8B3B",
"~. c #6E9336",
"^. c #7D9135",
"/. c #7D923B",
"(. c #749338",
"). c #6B9027",
"_. c #6B8242",
"`. c #6C834B",
"'. c #6A8842",
"]. c #748344",
"[. c #7B8540",
"{. c #748B42",
"}. c #7D8B41",
"|. c #7B8649",
" X c #799247",
".X c #81921F",
"XX c #838B25",
"oX c #848C2D",
"OX c #878726",
"+X c #83922D",
"@X c #8A932C",
"#X c #879627",
"$X c #808634",
"%X c #838C35",
"&X c #8A8E34",
"*X c #838C3B",
"=X c #8A8E3A",
"-X c #868638",
";X c #908A3E",
":X c #859333",
">X c #8B9334",
",X c #84923B",
"<X c #8B933C",
"1X c #8C993C",
"2X c #8B9937",
"3X c #90923C",
"4X c #939335",
"5X c #95A737",
"6X c #838D42",
"7X c #8B8D42",
"8X c #898D4C",
"9X c #858946",
"0X c #849343",
"qX c #8B9342",
"wX c #8B9941",
"eX c #849349",
"rX c #8B934C",
"tX c #859944",
"yX c #919441",
"uX c #808E50",
"iX c #849050",
"pX c #F6FF6F",
"aX c #FCFE6C",
"sX c #EBFF79",
"dX c #F4FE74",
"fX c #FDFE75",
"gX c #FAF57B",
"hX c #F6FE7C",
"jX c #FDFE7C",
"kX c #FFF776",
"lX c #EDFF88",
"zX c #F5FE83",
"xX c #FEFE83",
"cX c #F6FE8A",
"vX c #FEFE8A",
"bX c #FBF683",
"nX c #ECFF95",
"mX c #F5FF93",
"MX c #FDFE92",
"NX c #FEFF9A",
"BX c #FBF49A",
/* pixels */
"| z b @.%./ O.= b $.~ o.#./ 6X<X+X,X| T qX%X<.O.x * 4 P ,Xi.1 _ O.+.r.d w.d ^ Q.<Xr.3 5 n ,X^.0.#.O.} > T qXe.v 3 q <.qX",
"U.D b c Y #.#.R P #.R H I B.<.6.e.e.i.Z.Z.N.<.} Z - 3 c ,X  E J y F | w._.L.O.e.U.4.1.J J *X@XY.E.I o. .2.:XN.1 F e.!.%X",
"R.u J z c O.R <.;.O.R z G K.F v c T !.,X( ^ ( | 1 4 V y a.o hXU C n O.2.L.>./ E ! A.<XE Y *X>X0X*X! +.r.e.G.3.* / eX,X%X",
"L.2.w.` | Y.F.Q.D.Q.<.1 Z H 2 1 O.y.! ! H H ^ ! ' D ..#.o . hX| n 0.!.3.M.2.w.O.+.2.J.+.y.1.3.'.W.!.J.O.0.L.w.Y / e.e.e.",
"O.U.U.O.w.:X>X0X<X,XJ.z C * x D e.P.= 1 v b  .( $./ ! ;.  fX@ fXMXzX@XW.r.R ^ o.+.%.%.w.E.Y J ! 1.0XY./ / 0.O.#.O.( ( y.",
"! w.2.R.Z.3.U.7X*Xu.2.c R <.c 1 U w.2 3 z z ..O.#.:.!.cX  NXxX. fXxXcXi.r.c y K ^ +.<.$XY.4 { A.R.<X,XY.N.! R H G ( ( / ",
"/ O.0.,X!.<.e.3X*XE ^ R q.,XP 1 / ^ x * * c 0./ ^ 4.jXo jXfXhX  vXxXxX;.^ o.% n y.^ R W.T.1 { =X,X,X*XwXR./ K 1 H O.O.^ ",
"L J M 0.L.W.$X>X!.P G  .u.<X3.w.( O.O.Y ` o.U.R.{.oXxXo xXfXxX  jXfXzX( } [ w X.^ R b | 2.^ { P E 3.A.<Xp.n x 1 x H H R ",
"b x x R w.*X,XqXY.Y ` +.,.,X!.Q.y.| O.Q O.>.uX<X2X%XfXo jXjXjXo fXxXjXP h.p 1 R o.{ q J j.j 6.1 b O.n.,Xz.v 3 = 5 2 x R ",
"R x 1 b c E ;.R.,.P J 0.4.=X&X:X&XY.y.( T.S.<.! cXfX# vXhXjXjX  jXvX4.Q.[.W.}.w.! ( ' H.G.L.N.E.}.R.D.>.J.E.0.* I E.W.Y.",
"^ 2 3 x x n Y K.J.R H O.p.6X=X:X4X%X<.y.!.[.U F hXjXO fXhXbXxX  xXfXbXXX#X@XW.E.O.G $.Z.%X}.U.<X:X*X}.E 3.2X:.z :.qXqXY.",
"K n { w.( ` v J ' @.o.K R Y J F 6.2.T.2.3.5.hXvXMXjXO zXhXxXjXo hXvXjXjX<X,XY.u...sX=.jXaXa.B.D N c 0.$X2X*XuXt.A.wX!.2.",
"I | <.S.M.x > z c +.^ D 4 3 3 3 @.o.T./.0.7.vXbXjXjXfX. vXjXbXO xXjXjXxX7X-XA.2.K E vXvXxXxXNX* b 6 ` 6X>X:XR.*X,X!.J.2.",
"!.W.U.T.J.J | W.=X<X3.c n ` x 1 F  .!.S.d U zXfXxXvXjX  bXhXxXzX. fXfXcXrXqX  o o . o   . jXdXm x z F I.B.>X4X-XE.E E O.",
"1X<X*X3.w.O.3.>X&X>X!.T { J w 1 d Y k.M.Q.L.s vXjXfXvX. vXfXaXjXo MXxXfX  o . fXxXjXxXhXdX  o   # X j.o.R i.s.Y.t.T O.r.",
",X>X<X! +.{.R.>XqX,X!.E O.^ D 3 / 0.{ ~ /.6X8.fXvXxXdX. cXjXjXvX  cX. .   xXfXvXfXcXvXjXxXjXvXjX;.d.  o .       ( ^ ( / ",
"e.0.l.O.<.!.%X>X%X^.Q.#.y.b.e.<.L G J.M.l.| Z.o o # . cXaXMXMXdXo hX. vX-.cXfXxXvXjXfXxXjXjXmXF.J.| +./ 0.  # R ! L.O.J ",
"F R I ( >.,XqX7X*X!.N.q.k.D.eXiXN S rX!.9   . hXjXzXcXjXjXxXxXfX  . jXjXxXcXfXxXjXvXxXjXfXvXcXU.p.O.  X   o z.T <.E.O.* ",
"H K ^ ! 2.}.T.k -.qXF.F.].U.oXOXU.U.. o o cXdX9.fXfXjXjXxXjXfXjX. xXjXjXxXjXxXxXjXxXbXjXjXxXj +X  o e.U u..XoXW.u.e.0.R ",
"y $.} O.2.J.y.z 8 B.*XxXpXs Q.o   o !.Y.<XzXvXkXvXxXgXxXjXkXxXxXjXbXxXjXxXvXvXjXkXjXjXxXcXx..   <XD.w.Y 0.wX@X<XE.U / 0.",
"F R J ..n { J - 4 2.xXvXjXo   U.7.f 7.t.dXjXjXxXjXgXvXxXjXvXvXfXxXfXbXjXxXfXaXvXxXjXxXjX.   0./.Y.a f.Z R E p.>X!.e.w./ ",
"6.R u J { v x * cX. . . o hXxXxXjXfXvXaXjXxXgXvXxXxXxXcXxXxXhXjXxXxXjXjXjXfXxXvXvXxXjX. o a ! /.Z.z 6 } y ; 7.qX*XY.U.;.",
"! ( o.Q h 2.l.  o X   o     . o xXxXxXjXxXjXhXjXfXjXfXdXjXdXxXvXjXjXbXjXjXxXbXjXhXjXO   Z.K.v.!.v.O.R i ! [.*XXX>X*X%X!.",
"#.} #.$.O.U.F.vXjXjXvXjXbXxXvXdXo   o cXjXjX.   xXvXbXxXxXxXjXjXjXxXxXxXxXxXjXxXN   *.T. X{.E.$Xk.+.^ ( E.6X%XqX&X3X&X<X",
"{ O./ ( +.<.,.mXvXjXxXjXvXMXjXjXjXjXvXo   . jX. xXxXjXjXjXjXjXjXxXgXxXvXjXcXMX. o   I ! y.F F C ` $.^ / | J K Y ^ ^ U.<X",
"` +./ O.| 0.l XXjXjXxXxXfXfXjXkXvXxXfXxXjXxXxX  xXxXxXxXjXjXxXjXjXjXjX. .     | X.y ] | Y J z x 0 ^ +.0.F 1 4 1 v { u.*X",
"b +.Q Y ..].,XoXjXjXfXjXjXxXxXxXpXxXxXjXjXjXxX  xXxXxXxXxXxXxXxXxXbXxX. o lXv ! m.Q.B. .R W.Y.!.Y.<.+.Q.+.1 3 1 E Q.,X+X",
"x ^ ( P e.6X*XqX6XXXvXjXcXzXxXjXvXgXxXcXfXvXO dXxXxXxXxXxXxXxXxXxXxXxXxXo e.9 | ].v.H.J e %X>X<XW.O.( T.w.C v w 1.}.!.U.",
"o.R J.U.R.2XT.T 3.>X7X*X!.,.cXxXhXxXjXjXxXvX. xXxXxXxXxXxXxXxXxXxXxXaXjXdXo vX:.P P C b c U.R.-.0.| ( S.q.J | %X3.e.R n ",
"O.E q.,X:XD.E.T U  X].T.D.Q.a v v vXxXjXfX  jXxXxXxXxXxXxXxXjXxXfXfXvXvXjX$ xXhXzXz z 4 c L.T.E #.J ! T.U.Y <.1XB.! P Y ",
"x | / %XR.a Y L.w.` H F ;.:XY 3 >.W.mXfXfXo hXjXjXjXxXxXxXxXjXjXjXvXvXjXxXdX. xXjXhXe w D F I Q.w.( L.6X*XT.3.;.G w / {.",
"x #.0.*Xp.v x B.;.3 : ] t.R.b 7 5.m.*X*X  >XU.xXjXjXxXxXxXjXjXjXxXjXfXxXjXdXcX. bXjXzXn C c ( Q.T.! u.8X%XS.J.r.] * 0.,X",
"J { R +.o.1 1 { H 3 Y T.m.O.b 2 5 X.M.A.# ^ fXjXjXjXxXxXhXcXvXjXbXjXjXfXfXjXxXjXo bXzXq. .:.y.D.U.6.e.<X=X7XU.<...^ ( O.",
"G J R ! ^ J H J D z R !.Z./ n x M e F.Z.O fXvXMXjXvXgXxXxXaXvXjXfXjXvXxXBXxXxXvXjX. jXy.jX#./ !.J.O.w.Y.U.}.Q.! y.! Q O.",
"w.R R +.( O.O.+.R J 6.!.T.<.| O.` b N.~.  xXxXzXxXxXvXaX. . mXjXjXxXxXjXvXxXbXfXfXjX  jXU #.2.eXT.c * 0 I 0.( O.O.^ I c ",
"H.G Y R ^ O.O.( I R 0.!.U.<.O.( h.Q /.  e xXfXxXfXxXjXfX. . hXxXvXjXfXjXaXjXxXfXvXt.xXO R 0.w.*Xe.z 4 & 1 | R y.<.e.! n ",
"( O.#.R R O.O.! +.O.O./ / ! O.( OX=X<XO xXhXxXfXxXjXxXxXo cX. O xXjXt MXvXjXbXvXjXfXxXzXO ] jXC.E.v 6 4 < c R _.T.R.3.E ",
"^ O.O.R F J R w.( ^ +.+.( w.( ^ -X<XM.. xXjXjXvXxXjXhX. hXxXxXjX$ jXdXzXfXjXxXfXxXxXaXMX  jX4.Y.:.{ 6 3 2 q P t.4.,XN.E ",
"O.+.^ / | b Y Q.w.( <.( ( L.( 0.P.K.R o zXjXjXvXvXhX. hX7XxXfXjXxX. . vXxXvXbXjXxXjXvXxXO cXdXvXm.Y ] & n c e * *. XL.Y ",
"J O.! ( O.v c 3.L.2.L.L.e.!.! <.B.U.jX  c vXjXjXjXvX. zXjXxXxXxXjXxXzXO fXfXxXxXxXjXjXjXjXo hXc.nXu x * K O.#.b E Q.2.F ",
"2 O.O.0.#.J H ` | tX>X>XqXY.( ^ U.Q.  fXjXjXxXvXxX  vXvX/ T r./ l Y xXjX. xXfXjXxXbXxXvXaX  vXxXxXhX5 vX7.&XS.#.#.! ! #.",
"K 2.>.! ^ ( ( R 0.<.q.e.i.T.2.O.N.3.  vXjXbXfXxXfX  jXdX0.r.l y.{ hXB A pXo xXxXjXvXjXmXjX. dXfXjXW P c 0.yXS.<.+.n.2.O.",
"+.T.Z.( +.T.T.O.E w x x R T.w.6.*.! o jXvXxXdXjXvXo aXXX<.t.V.H.j.X.m zXzX  o cXjXjXkXxXvXjXo O jXvXjX&.,.,XT.<.w.T.w.O.",
"O.Z.U.}  .R.Y.K F 1 3 , G H./ | y.w.. jXgXxX. o . xXvXcXt.,.J.y.^ ^ r P 3.k U     jXjXzXjXhXxXo o xXxX} jX`.3.;.<.L.E J ",
"w.U.e.b J *XY.c 2 b n F E R G G V.o jXvXxX. vXvXfXvXpX8XrXD.<.E ) %.j.w.I.E.j.0.P.. O . fXdXvXdX  xXjXjXfXl.h q.( O.Y Y ",
"!.%XL.1 F qX*XI } R 2.!.i.Y #.%.^ o jXjX. hXfXfXxXxXzXX.<XC.A { [ H K P #.( ;./ ! ( xX  . jXxXxXo dXMXjXjXbX X=X2.R E J.",
",XT.H.x F !.R.w.0.<.U.%Xi.n  .( ! . fX. hXjXvXbXxXvXz J W.T.E E E U r.T #.o.P y...h.hXz.<X. vXxXo xXfXMXxXkX5X*XJ.c / /.",
"Y.<.#.` Y <.2.{.A.*X*XY.E.Y } ( o jX. zXjXvXfXxXxXjX% b P O.T.T.&X,X*Xt.w % 2 ..R.2.! F.9Xo jXfXo fXjXjXxXxXkXrXu.> | /.",
"E.+.| I P ( J.Z.U.*X*XR.E.Y O.(   jX  jXfXfXjXxXxXjXzXr d.I S.!.%X>X<Xe.1 4 1 O.|.2.2.K.k.m . o vX. xXfXxXxXjX>Xq.q | {.",
"w L.Q.~ 2.6X[.Y I 0.4.,XY.P p.Y.  ... MXcXxXcXzXcX;.V C Q.U.U M.<X<X<Xu.x 1 1 0.<X6XF.<.c cXdX. xXjX. vXdXjX=X=XE.E O.( ",
"D w.3.2.e.Y.W.| O.^ <.Q.w.P t.i.# N.o aXjXgXfXr.;.d y K P.<.0.w.=X=X*Xi.x x F <.R.#X|.E J 1 sX. xXjX  ..jX%X,XyX!.0.O./ ",
"0.F P 6X*X;.2.T.P./ } x < 4 H I o o ( jXxXxXjX1 lXw.`.K.~ O.r.p.<XyXqX!./ y.E.U.( 2.T. .< < Y 8X$XdX  O.p.:X1X<XU.U ! +.",
"U O.0.W.W.! ( w.2.+.O.J J } R 2.. :X_.g M vXz p k.e.D.D.e.u.U e.&X&X%XU./ e.Q.,.%.M.!.I 2 i k 3X$X0.+.+ ! R.Y.U.U.3.w.O.",
"c 6X!.! ! / } _ y 0.u.,X<X*X*X=Xo <X).M.| hXd.e.7X%XZ.6X6X<XR.G.<X%XR.J.( w.Q.N.O.B.u.3.k.tX%X;XW./ d.Y K ! q.w.Z.0XQ.O.",
"Y p.E.( ^ 0.| b K O.1.>X@XoX=X&X!.A.~.E.P R Y ( >X+XR.!.oX,.<.P.<XR.Q.w.U ( e.w.| ! y.U f E.R.D.J.O.I h  ./ 7.! 3.Q.w.{ ",
"O.* x O.^ o.+.;.^ O.E.,XD.Y.T.T.0.h |.z.J P 3 D S.Y.wX[.c R w.t.=X*X!.<.F R O.R K - 1 V c | ~ g.( ;.+.(.E.g L.T.L.! F b ",
"w.P P N.3.Y { O.$.! 2.P.K.T.!.Y.3.L.O.@.H 4 H K R.*XY.q.} R 3.U.<X$Xi...C _ J } Y d <.Y c O.^ ( O.O.w.w.J.( 0.u.@.J R E ",
"T.^ 0.tXT.w x ( @.;.;.w.2.U.!.R.1XY.P z 1 c E ( ,XW.,.U R O.T.Y.<XZ.2.Y 1 = w J O.Q.eXr.R O.O.( ( ( 2./ <.^ ( 0.F c 0.6X",
"2.F Y w./ z x R #.U.q.O./ N.!.T.<X%X1.q.0.q.U.Z.:X!.U.3.R O.Q.Y.U.Z.U.0.J F F Y G ^ w.w.w.O.0.U.U.E.e.! / ^ ( ^ ^ U i.qX",
"^ n > q z V C D ( /.!.O.^ 2.E.T.*XqX*X<X,X*XqXqXR.*XwX!.O.^ T.Z./ U.*XE.O.O.o.K b 1 q 3.R.<.0.+X<X0XQ.<.+.+.+.^ L.U.*X=X"
};
