/* XPM */
static char *_8ebbeb87f4b46199dd686e0988e028bK3vyi1BGnCU50B7V[] = {
/* columns rows colors chars-per-pixel */
"60 60 184 2 ",
"   c black",
".  c #3D551C",
"X  c #37591D",
"o  c #3D5A1E",
"O  c #344F22",
"+  c #3D4F23",
"@  c #3B4F2C",
"#  c #355524",
"$  c #3C5523",
"%  c #365826",
"&  c #3D5A24",
"*  c #33572B",
"=  c #3C562B",
"-  c #34582A",
";  c #3C5A29",
":  c #3F5830",
">  c #3C6023",
",  c #42561E",
"<  c #445A1E",
"1  c #46621F",
"2  c #4C651F",
"3  c #51631F",
"4  c #56691A",
"5  c #415623",
"6  c #445C24",
"7  c #4A5D24",
"8  c #41562B",
"9  c #435C2B",
"0  c #4A5E2A",
"q  c #515E24",
"w  c #455B32",
"e  c #485E34",
"r  c #456225",
"t  c #4C6325",
"y  c #4E6926",
"u  c #46622B",
"i  c #4C642B",
"p  c #46692C",
"a  c #4E692C",
"s  c #516525",
"d  c #536B25",
"f  c #5A6C26",
"g  c #52652B",
"h  c #5A662C",
"j  c #546B2C",
"k  c #5B6D2C",
"l  c #547327",
"z  c #5C7325",
"x  c #56722C",
"c  c #5C732C",
"v  c #577829",
"b  c #5C792D",
"n  c #436131",
"m  c #4C6432",
"M  c #4D6A32",
"N  c #536532",
"B  c #546C32",
"V  c #5A6D32",
"C  c #54653B",
"Z  c #566F38",
"A  c #5B6F3E",
"S  c #557332",
"D  c #5C7332",
"F  c #577831",
"G  c #5D7933",
"H  c #56733A",
"J  c #5B733A",
"K  c #5C793B",
"L  c #616D23",
"P  c #616E28",
"I  c #686F29",
"U  c #627425",
"Y  c #6F7326",
"T  c #657827",
"R  c #6C7E25",
"E  c #62752C",
"W  c #6B762C",
"Q  c #647B2C",
"!  c #6B7C2C",
"~  c #717C2D",
"^  c #626E34",
"/  c #627533",
"(  c #6A7536",
")  c #647B33",
"_  c #6B7D34",
"`  c #617539",
"'  c #657B39",
"]  c #6C7C39",
"[  c #727E33",
"{  c #727E39",
"}  c #787D3A",
"|  c #668428",
" . c #6C832D",
".. c #74842D",
"X. c #7A832D",
"o. c #758A2C",
"O. c #7B8B2E",
"+. c #7E922F",
"@. c #668134",
"#. c #6C8234",
"$. c #6D8935",
"%. c #6D833A",
"&. c #6F8A3B",
"*. c #738433",
"=. c #7A8634",
"-. c #748A34",
";. c #7B8A34",
":. c #778138",
">. c #76833B",
",. c #72833D",
"<. c #74843B",
"1. c #798138",
"2. c #798738",
"3. c #7B853A",
"4. c #778838",
"5. c #74893A",
"6. c #758A3A",
"7. c #7C8939",
"8. c #7F8C3A",
"9. c #7F8A3C",
"0. c #7E8D3C",
"q. c #7C8B3B",
"w. c #7E9035",
"e. c #7C913A",
"r. c #6A8842",
"t. c #6F8942",
"y. c #768641",
"u. c #7A8540",
"i. c #738A42",
"p. c #7A8B41",
"a. c #7F9145",
"s. c #81872F",
"d. c #868C2C",
"f. c #8B912D",
"g. c #8B942F",
"h. c #84932C",
"j. c #838632",
"k. c #838D37",
"l. c #858D37",
"z. c #838C34",
"x. c #8A8E35",
"c. c #808B3C",
"v. c #838D3B",
"b. c #8A8E3B",
"n. c #918B35",
"m. c #928D39",
"M. c #869633",
"N. c #869037",
"B. c #869435",
"V. c #859134",
"C. c #8A9535",
"Z. c #8B9235",
"A. c #8A9837",
"S. c #80933A",
"D. c #859638",
"F. c #83923F",
"G. c #84923D",
"H. c #85923B",
"J. c #8A9038",
"K. c #8C9538",
"L. c #8A923C",
"P. c #8A943E",
"I. c #8A923C",
"U. c #83983D",
"Y. c #8C983D",
"T. c #92923D",
"R. c yellow",
"E. c #808E41",
"W. c #838E42",
"Q. c #8C8D41",
"!. c #8B8F49",
"~. c #839142",
"^. c #859240",
"/. c #879540",
"(. c #829345",
"). c #849343",
"_. c #899241",
"`. c #8A9340",
"'. c #8A9141",
"]. c #8B9341",
"[. c #869844",
"{. c #8C9941",
"}. c #919540",
"|. c white",
/* pixels */
"V 5 9 S F c D X 9 K z S J c E.K.h.S.V h '.k.E D 8 5 & t '.[ 6 9 v F D D c z c ,.P.` ; * 0 G.    J D B + h '._ 8 = , E '.",
"*.r 9 7 g J H j s J j u d  .E ^ _ _ [ .... .E B 9 5 $ u 9.[ j a r i D ) %.) b ' *.~ W i     g.1.*.d S Z E M. .$ 0 _ 7.I.",
";.2 i 5 7 D k E U D j 5 y $.t 8 7 h 8.D.b x b V $ 5 ; u :.! c y : 0 E W <.) c z z X.    g b.Z.    z G ` _ +.! $ c (./.z.",
"%.T ) m V =...5.O.5.E $ e u & $ D ' z z u u x z M g N D c.2.G x e D 2..._ ) G       @.G ' W W r.1.      ` %.) g c _ _ _ ",
"D *.*.D ) B.C.~.L.G.#.5 w . 9 r _ &.o $ 8 9 Z v K c b U N.0.B J s _ G.-.      b G S S ) :.g i z W /.2.c     D J D c b / ",
"z ) Q ;...! *.Q.v.] Q 7 j E 7 $ f ) & = 5 5 A D D W 7.;.K.2.7 N  .!  .                                            c c c ",
"c D / G.8.E _ T.c.k x j ) G.s = c x 6 . . 7 / c z ~ b.L.Z.~ < s       G D a   i ' x h                 {.;.c a $ r     c ",
"p i q / %.2.j.C.7.s y Z ] I.! ) c D D g m S *.;.p.j.b.'.J.0.    / / j D x   $ C c j 9   Q   N s k ! X.      9 $     u a ",
"9 6 6 j ) v.N.'.2.g m G R N.0.6.G D b b c ) k.L.U.z.T.      5.! J j t     g .   S g       E k $ 5 D Q L.}       %   7 j ",
"j 6 = 9 0 k T ;.R s i / ~ b.x.V.z.3.E c 6.-.b c c     3.        c E   =.;.=.:.      R.  R.R.#.2.7.;.2.Q @.  / 6 k   2.;.",
"x & = 6 6 0 g $.@.j u D { W.b.V.n.N.) / S.=.j     U v.<.7 6 a s                 R.R.    R.R.R.G.P.;.0.      ! , Y   '.j.",
"y 0 N ) b m 8 i M H S a j g i t ( T  .#.       .9.          y.*.  J V E P.                  R.s q t   j.x.  p.] X.  7.E ",
"d V E o. .6 + 5 7 G x r ; = = ; H x     k / 4.;.Q.b.J.;.W {                     R.R.R.  R.R.        g b.x.  v.v.G.  $.b ",
"0.3.:.-.@.i V 3.b.L.~ 7 0 m 6 $     <.*.c j d k x.Z.Y.L.k.    z.w.-.-.    V.  R.          R.R.    6 m K #.  Z.v.{   c G ",
"Y.L.v.! ) D ! V.x.Z.7.h N i     3 k R.R.5.#.k J X.*.U Q   ..........O.  ;.  R.R.R.R.R.  R.R.  R.  k D S G   ..<.'   D / ",
"N.V.I.z G i.;.Z.].N.7.k                                                                     R./   S c U /   M D c   b z ",
"( ' ' b U 8.z.x.x.k.-.D         R.    R.  R.R.          R.    R.R.      R.  R.    R.R.    R.) #.  x D / U   ) V z   D u ",
"s t y c ! v.L.{.b.G. .E   k.].R.R.R.  R.  R.R.R.R.R.    R.R.R.R.R.  R.R.R.  J     R.R.R.  R.R.R.  E G ` {   *.R.E   D . ",
"r B S G Q 9.:.L D q.=.-.  ~ R.R.R.R.  R.  R.R.R.R.R.R.                  R.  R.      R.R.  R.R.R.  ..Q R.R.  R.R.<.  G j ",
"7 J J D / y.' < u 5.v.P.  k ;.R.R.R.  R.  R.R.R.R.R.R.  R.              R.        |.              R.R.R.R.  R.R.R.  c D ",
"g j t j j j u $ 6 Q [ k.  i ) R.R.R.R.    R.R.R.R.R.R.  R.        |.    R.        |.|.    R.R.                      R.c ",
"D j t j t 6 o $ i k / q.  a S x R.R.R.    R.R.R.R.R.R.  R.R.            R.        |.      R.R.R.  R.R.R.R.  R.R.R.      ",
"c j S D c ) ) ) V 9 i )   k J D u R.R.    R.R.R.R.R.R.  R.R.R.R.R.R.R.                R.  R.R.R.  R.R.R.R.  R.        R.",
"G S J D b -.-.2.] = r S   E ` c g j x x   R.R.R.R.R.R.  R.R.R.R.R.R.R.      R.    R.R.R.  R.R.R.  R.R.R.R.    R.R.  R.L.",
"j D z b b / _ y.1.:.! b   D i i @._ ;.;.  R.R.R.R.R.R.  R.R.R.R.R.R.R.R.          R.R.R.  R.R.R.  R.R.      R.R.  R.R.L.",
"m G c G D c T 2.j.P.7.z   Z j d _ :.L.k.  E N.R.R.R.R.  R.R.R.R.R.R.R.R.  R.R.R.R.R.R.R.  R.R.        R.  R.R.R.  R.R.k.",
"9 G b i V p.k.z.z.g.].-.  9 ) _ i i j j   t e.R.R.R.R.  R.R.R.R.R.R.R.R.  R.R.R.R.R.R.            R.R.6.  $ R.R.  7.k.z.",
"6 k b k / S.N.v.N.d.b.=.  r ) ] 7 6 0 7     S.R.R.R.R.  R.R.R.                  R.  R.    8.M.Y.  D c -.  w 8 <   0.-.*.",
"x c ) :.8.A.=.^ ! {.b.;.  ' s 0 . = u u       R.R.R.R.  R.R.R.R.R.R.R.R.  R.R.R.R.    R.  5...I   B b o.  i V k.  ] j 0 ",
"c G ) k.B.S.] h f y.6.-.  6.t = & n M a   t     R.R.R.  R.R.R.R.R.R.R.R.  R.R.R.R.  R.    %.*.P   i z -.  g E Y.  c g i ",
"6 j E G.=.3 g %._ u 1 j   w.N ; ! :.k.N.  7.R.    R.R.  R.R.R.R.R.R.R.R.  R.R.R.R.R.  R.  2 z <.)   %.E.  -.! U   < D p.",
"6 J E 8.{ 8 7 | z = > m   V.0 ; W :.;.V.  z.R.  R.R.R.  R.R.R.R.R.R.      R.R.R.R.R.      u D i.-.  ] !.  o.#.`   . / k.",
"i N j G S $ = N u = g -.  D 9 $ = m  .<.  R./   R.R.R.  R.R.R.R.R.        R.R.R.R.R.R.    D T 2...  ! C.  L.-.E   c G D ",
"y i g z x u u i r 5 j 8.  c 9 6 7 7 ..  R.R.R.  R.R.R.  R.R.R.R.R.  R.R.  R.R.R.R.R.R.    G W 2.<.  ` 7.  p.#.c   c z D ",
") j j G b D D G k i ^ 0.  E V D u 0 -.  R.R.R.  R.R.R.  R.R.R.      R.R.  R.R.R.R.R.      R.E ).#.  5 <   / b z   c a 6 ",
"@.y g j x D D b d j / 6.  E D c D D 5.  R.R.R.  R.R.R.  R.R.    R.R.R.R.    R.R.R.R.R.    D / S.<.  $ $   Z c )   ) k 9 ",
"b D J j j D D z G D D c   z G c j.R.R.  R.R.  R.R.R.R.      g R.< R.R.R.  R.  R.R.R.R.    N k o.!   = &   7 d %.  ;.! D ",
"c D D j t i j ) b c G G   ) b x j.R.R.  R.R.  R.R.R.R.  R.E D i = R.R.R.  R.R.  R.R.R.    R.Q O.*.  9 &   5 s '   S.#.k ",
"D G c c V 9 i 5.) b E b   %.b / -.R.R.  R.R.  R.R.      E./.6.' $ R.R.R.  R.R.  R.R.R.    R.v.=._   9 o   0 7 .   a._ i ",
"i D z b D 8 0 ! #.Q #.#.  q.z R.R.R.R.  R.  R.R.    R.  ;.X...Q 0 g R.R.  R.R.R.  R.R.    R.R.{ z   9 X   J J 7   6.Q s ",
"& D D / J u u m V /.C.Z.  =.z R.R.R.R.  R.  R.  R.R.R.  G V G b v y $   R.R.R.R.R.  R.    R.R.R.9   ; @   L.=.D   z z J ",
"u Q T z c b b j / E ) ]   -.Q R.R.R.R.  R.    R.R.R.R.  b b Q / V i 8   R.R.R.R.R.  R.    R.R.R.V   p u E N.    / | Q D ",
"G -...b G -.-.D k < 9 9   -.Q ^ R.R.R.  R.    R.R.R.R.  c ) -.] ` N 5   j R.x R.R.R.      R.R.R.%.  S x !   -.b ) 6.) D ",
"D ..*.B Z ;.=.a r = = O   @.c V ) ) R.      R.R.R.R.R.  _ ] @.Q z k 2   Q b R.R.R.R.R.    R.R.R.[   S D   6._ c b %.k i ",
") =._ 9 u c.7.7 & 9 9 t   k y a %.6.R.    R.R.R.R.R.R.  L.3./ G x F F   %.@.E R.R.R.R.    R.R.2.!       D E U W Q D g t ",
"0.k.#.& t ].k.d B j Q 7.  h J F z W =.  R.R.R.R.R.R.u   I.s.s a m a a   G G z E R.R.R.    R.j.T.S.  _ / ' 7.N.N.Q g k $.",
"N.-.@.6 t 7.;.) / E *.k.  0 Z v c ) *.  0.6.R.R.R.) 8   q.=.k j k k D   V D j G D K R.      k.;.    ..W ~ C.K.b.@.0 D ;.",
"=.U J m g E Q y.X.W.b.=.  h B b D D c   G c k G 6 7 .   t k p.7.z.N.v.  7 . 6 S 7.Q b           V *.N.E.'.C.z.!._ + V q.",
"*.G B d d b @...-.v.v.;.  g D b G d b   V j / z & e $ 6 H c *.7.z.Z.Y.  $ ; $ D q._ Q       = 6 d $.6.;.v.b.I.C._ < V 5.",
"< %.6.c Q E.u.g d / ~ N.                                                                  + 6 c D G c E 1.'.b.x.<.k D c ",
"r ) ! Q _ =.1.V D c E 6.) s ] [ ) _ c B 9 9 N D z l r j $.! c ' b.b.b.[ 6 6 t E z.v.7.k u = 7 U ) D D c ! z.Z.T.<./ G c ",
"/ t s E.c.U Q -.&.D B 6 # ; u d v.0.U B & = 6 < x ' 4.#.G D b ] L.}.{.9.c ' ,.*.z ! 4.j % - i ~.-.b J D  .I.K.J.*.z c G ",
"f D / 3.2.z c ) Q G D i u B j Q z.N.! E 6 6 7 t _ ] 7.;._ ) T _ x.x.k.-.c _ 6.R J @.q.z r y U L.;.U D B b ;.7.:.*.! ) b ",
"7 W.7.z z c B n 1 / ] G.P.b.b.b.x.N.;.#.j B V ' b.;.2.0.D.G.-.e.J.k.;.#.b ) 5. .D ) -.! _ ).z.m.2./ D N g c / / *.~.6.D ",
"g { <.c x / B 9 y D W V.g.d.b.x.7.-.-.<.j j i S I.V.;.7....._ -.J.;.5.) f b _ ) k c / k f =.=.3.,.b j D D D c b ! 5.) i ",
"D . 6 D c S G U x D <.G.O.2.5.-.E z <.%.g u o u -.7.I.;.g g / _ b.k.q.E t j D j t o $ = 6 c b H c c Q 5.%.E ! -.#.z t 9 ",
"Q g s ! ! g Z D H z E t.-.;.=.-.~ <.D J u ; u a j.v.5.) B j ! *.L.k.] Z 9 i u N N 4 W g 0 J c v D c ) ) @.b / ' S y k k ",
"-.D ` [.-.< 5 c S U E ' Q -.7.-.Y.=.s 6 $ 6 k b N.2.! z h D -.2.L.=.W g $ . < i D -.(./ j D D b b b E c b c b / M 6 / W.",
"Q t g ) c 5 6 j D *.! D c #.=.-.I.v.W ` / / *.*.N.3.*.! k D 6.2.4.*.*.` i t t a i z ) _ Q G / *.-.*._ z c D b z B h { '.",
"c 9 $ $ = 8 w r c G.2.D c Q *.-.b.L.I.P.I.v.L.'.;.7.P.0.D b -...c *.G.:.D D D a 9 $ , ) w.U / V.I.G.2.E D D G c @.-.b.b."
};
