/* XPM */
static char *cfe2f695202d4e578032bf435ed0f012m9XZBOReVM27zLaW[] = {
/* columns rows colors chars-per-pixel */
"60 60 57 1 ",
"  c #3D5625",
". c #3F5826",
"X c #425B27",
"o c #455E28",
"O c #495F28",
"+ c #47612A",
"@ c #4C642B",
"# c #4F682C",
"$ c #51662B",
"% c #536C2D",
"& c #5A6E2D",
"* c #57702F",
"= c #5A722F",
"- c #5B7430",
"; c #5F7831",
": c #62742F",
"> c #657A2F",
", c #627630",
"< c #687630",
"1 c #647A31",
"2 c #677D32",
"3 c #697B32",
"4 c #6E7B32",
"5 c #6B7E33",
"6 c #6E7E33",
"7 c #6E7F34",
"8 c #717D32",
"9 c #6A8032",
"0 c #6D8031",
"q c #6E8332",
"w c #6E8034",
"e c #718233",
"r c #758033",
"t c #728633",
"y c #738733",
"u c #748733",
"i c #728234",
"p c #768134",
"a c #768435",
"s c #788334",
"d c #788635",
"f c #7E8736",
"g c #768934",
"h c #778B34",
"j c #788B34",
"k c #7C8B35",
"l c #7C8836",
"z c #7E8D35",
"x c #838B37",
"c c #838C37",
"v c #848E37",
"b c #868E38",
"n c #898F39",
"m c #869038",
"M c #899039",
"N c #8C9239",
"B c #8F943A",
/* pixels */
"&.X=--& o-----cNNb&%bb-&.  $Mp o-------iN:  +nx---$ %N4   :N",
"6+o+#-=#$-&+&5::3368iw-&.  @le##+$-,9,-1i6<@+bbaw-*#,N4 @<sN",
"x$+ X=----$ $uo +%bM,--&.  +t0-$ +-2j9---aB&OnNNx---6N4 &NNN",
"61:$&adddd1 O$X.=1&&+@==$##=cd-&+&di2,---1w1:<36idi-,w,#=w77",
"-tt-1MMNNNr    X0tX  X=----1Ml-=#<Nd-------9t$$-1Nl---------",
"-,2dd5iMc6,+%4o.=,X  X=--,dlNd+$5561-$o$---ado#dlMbji-&+$---",
"--,nc-1Ml-*#<M@ &=X  X=--1MNNp #g0---# @---dfX@nMMMNj-$ +---",
"#o+16lxNf$$*3M01--&$$&dllxMMNx21,-#&-# #-$o=1&$$&3iNroX Xo#$",
"+ X*,nMMd#$-5Mzj,----,bMMMMMMvg0-&@%-# #-@ #--& o-5M8     o$",
"%X X+&,j0#$-5MMbxl,-ld-==<Mf$$&&-,0axfs5-*%6ltesdxd16d: %ddf",
"*X .X+$t5$$-5bbnMb,,bx%#$=Ms.X@$-1gzNMNi---abgjnnnf-6N6 :NMM",
"$+#5>XXO#=&##@@@,1tt110tlxMl&,li-=$3Ncl1#&-==u0@@+&xbNl0jNd,",
"%#&u0X X+-=@o   &-gg--tgMNNx-5Nl-=#1Ncj,@&-%&t2   $bMMvlcni-",
"xxlg0+%fxb8.X+. #%tg-=$=nNNMbbNMbltlNMMi=&$1t;& .+$,iNMMp&=-",
"NNb92,5MNNd##$X $&29i6&=ii:3pppppaglcr:--*&,0i3##%&-,66a1&=-",
"NNb-;glMMNl--=X &---nb---& X=----2ggg= @----1Mc-----&+#-----",
"331-,zvMMca-1p3:##0i::pi&%#&9,%$+&5:%$##+%---1392---,6<&-9=@",
"@@#-1MNNmjt-5NNnOXxvXObx$$-,g9@o +-# +-# #--=@%g0---6Np#:l= ",
"+%&-,la&:ggdi3vM84ll63&=11--2=Xo#=di4<-=:&$*-&-cl02%1Nxp62=#",
"O=--,g5 +gzNp$lNNMjjMxXOgt---$ o-6NNNa-9l=+%--1Mml0#<MNNa---",
"$$$%$$@ +,0c0#15&&=,jg&&g0+++@$#o=Nbzldi2-&=-$-Mf$$@#%3Nl02-",
"-#@$#   o-,j5#*=X #%tt-,g5X  o-$ &McgcNi----=#=Mp X+o &Nvl0-",
"-**==11>=o#1-*--++&=,,--*=r851--1,-5l3$$#&-wj00je%%&,rfMMbcl",
"----,ggg5 o-----##------#&nblt-1g2@=l= X@%-aMjgu0---5MMMMMMN",
"$----,2gus8---$#20ll-,llfe$%,2t9,5fxMe%$@##-,#++#---&###%=iN",
"#-----,glNl--=##0gbb-,nNMd X=,g0-6NNNa-&###&&XXXo---$   o$4M",
"X=-$=lcbMMct>O>9#+%%o@bb2= X#=g0-6NMN3X&000&@dffp-,t:   &xlz",
"X=-%=nMbnMbj>X50O ++ ovc-&Xo#=g0-5bvb<X&ttt$+bMMl-,g> XX:Mlu",
"*-,lvNl&,Mmjg0#O  ++ Ogu#&ffetggt:OOo:x:OOOXOuu,-#=g2+=xi,&O",
"=-,nMxp$=xlugj+ XO##o+ut#&bce00tt:.. =M:..  O00-=#=j9#<ni*#O",
"o=,MlO#t>O+#,b@.>txbxxlt##,=OXX+--=&#&--*#+XX#&t0=1Mct0,$.=v",
"X&-xp.o0: X#,x+.>evMcxg0##=%XXO#---=&=,--&$+X@&gt-5Mbz0-$.:b",
"@##-* .#+ #g0-X XOet&&---*##=1bd---6nnMi-5g1=-,jt-5NMMd--=--",
"$##-&Oo#+.$zt-+X.O0t$#---=@#-1cd1,,6xlfi,5t1--,lt&,flci---=&",
"0##--=--&@=Md--=@@ttOX=--*@#---5Mvj5$+.:N3#&--1MpXXX+-----# ",
"9$#*=---*#-xi---&=jaoX$&,-#$***,sr51=# &d,#&==,mr   o&=,,,&X",
"--=##-----------xMNb$+ Ot0-*@@#+.  &N<   #-&$#&j5     $ggj9-",
"---$$$&,,----,--lvfp++$&t0==-==$ X#:l3#O #-&&,1j5OX  X#>ez6&",
"----& +g0---,g,-tt$# ovMg0@&Mbl> $g9-2g= #--,Mml0$+ X+o &N6@",
"$---&X+255550g,-tt==+#ad05=,ddt,+$:=-,0=o=522da5=+o +,&o=j1$",
".*--=@@@=MNNmg,-tggg-----,jt-----$ +-----aNct-*+o   %Nd-----",
"#,2--==$&4446g,-5921--65-,za--2,-$ +&=---5djt$$=&+++=Nd-;2,-",
"-gt-,gt-&   $g,---@@=,nb-1Mx-,g0-$ X#%-----00.+u0---6Nd-2j9-",
"-tt$&lu#+   #5=&1533ipMc-1Mbiw92-&+$,--,2,-tu.+g0&&-1a5-,9=$",
",u0X+ndXXXXO#=##0gMMNMbl,1xvNl-----1g5-2g2-dlO$je$%---,,--$O",
"bj0X+nx=**1x8#*--,gzMb11g0O%Mf$$###%-------aMvvMvu0-5bbb6@=u",
"bg9X@xl,,,0Mi@*---tgcl--e> @xp&&&&&&&&&=---aMxxxljt,iMMN6o=l",
"u,-@#-1glnvl5@*--------*XX X$=gjbbn3.. =g2-dlOXX$gznMMMN3 &g",
"5,-#$,2taccz6#-,----&&-*oX X&=tjMMN4   =z0;i8X X#tgcbMMN4X&t",
"O0t-,nf$%-5Np$0g---=XX=--& +g0-5MMN4   :Nzg=+ X=----6MMNa=--",
"+2515la==-1d3@2021-=.X$&-=+%t9-5MMM6Xo+<xjg=o o1,---5MMNa---",
"=@$bc-,jt-$   @%xb,*.  X=,gt---5MMNd-2g5-9l%  @nl---5NNNa---",
"&&,da--51-=$$$=<vn5-oXo@16jg52,wMMma-2g5-9j=o$=Ml--&,lllp5,-",
"Ovb---&Xo-5MMMMMNMjt##-,nmjzNmgzMvg9-2g9-5g21nMNl-&@$---wNa-",
"#46---*+#-5MMvvvldgt$#$=cvzlpi0aMcg5&,0,&=:&&dddi--==--,0l1$",
"&.X=------5Nvjjg--tt$+.+gzNf##-5Mcg2@%-%+X  X=----1g0-2g9-# ",
",@#63$$---,ddjjgi6:=+o+$lzd6#&2iNx0=o+#$$&&@+-----,02-,9=#%&",
"t-,MfXX-----1gjjMvO  X*,Mx-*#=jzNd-#   #-aB3#-----------# :N",
"2$$<: X%-i5-,9gjMn<:::waczi5&-ggaai,+@@##&<31-,iii5-----=&8N",
"&X    X+=Nl---tjmMNNNNNMjzNx-,g0-6Nd---#   3b-1MNNl-----2gcM"
};
