/* XPM */
static char *b4c2f9ba7b5c43a8ba7bc2e84e6693715ua2Qj0rQoaKAjT8[] = {
/* columns rows colors chars-per-pixel */
"60 60 236 2 ",
"   c #010202",
".  c #0B0103",
"X  c #010901",
"o  c #02010B",
"O  c #0B000A",
"+  c #02090A",
"@  c #080904",
"#  c #120203",
"$  c #13010E",
"%  c #010112",
"&  c #090412",
"*  c #070219",
"=  c #3C551C",
"-  c #3C5B1D",
";  c #385518",
":  c #354E15",
">  c #3C4F24",
",  c #394A26",
"<  c #3B5523",
"1  c #345A24",
"2  c #3C5A24",
"3  c #3C542C",
"4  c #325929",
"5  c #3C5A2A",
"6  c #365325",
"7  c #3C5734",
"8  c #3B6724",
"9  c #425614",
"0  c #42551D",
"q  c #445B1C",
"w  c #495B1C",
"e  c #495619",
"r  c #41461D",
"t  c #4E6B1C",
"y  c #46641B",
"u  c #51641D",
"i  c #556B1C",
"p  c #586E19",
"a  c #5D761E",
"s  c #53761B",
"d  c #416609",
"f  c #65751B",
"g  c #666F1E",
"h  c #435523",
"j  c #445C25",
"k  c #4A5D23",
"l  c #435329",
"z  c #435B2C",
"x  c #4C5D2B",
"c  c #525B25",
"v  c #404F30",
"b  c #425432",
"n  c #455C32",
"m  c #495C33",
"M  c #485637",
"N  c #585835",
"B  c #484F25",
"V  c #456223",
"C  c #4C6324",
"Z  c #4D6926",
"A  c #45622B",
"S  c #4B632A",
"D  c #446B2B",
"F  c #4D692B",
"G  c #446B26",
"H  c #526424",
"J  c #536B24",
"K  c #5B6D25",
"L  c #52642B",
"P  c #536B2B",
"I  c #5B6D2C",
"U  c #59662A",
"Y  c #557324",
"T  c #5B7324",
"R  c #55732C",
"E  c #5C742C",
"W  c #56792C",
"Q  c #5C7A2D",
"!  c #5A7B26",
"~  c #456231",
"^  c #4C6333",
"/  c #496738",
"(  c #536433",
")  c #546B32",
"_  c #5B6D33",
"`  c #5B6D3B",
"'  c #576637",
"]  c #4C7637",
"[  c #557333",
"{  c #5C7333",
"}  c #567B34",
"|  c #5D7934",
" . c #557339",
".. c #5C733B",
"X. c #5B7A39",
"o. c #577A38",
"O. c #4C7026",
"+. c #626E2D",
"@. c #676F25",
"#. c #627526",
"$. c #647A24",
"%. c #6B7A23",
"&. c #62742C",
"*. c #6B762C",
"=. c #647B2C",
"-. c #6B7C2C",
";. c #6D7526",
":. c #707D2D",
">. c #717D24",
",. c #636B32",
"<. c #646D3B",
"1. c #637533",
"2. c #6B7432",
"3. c #657B33",
"4. c #6B7C34",
"5. c #63743A",
"6. c #6C743B",
"7. c #657C3A",
"8. c #6C7C3B",
"9. c #727D34",
"0. c #727E3A",
"q. c #767A38",
"w. c #020174",
"e. c #02027C",
"r. c #0A017D",
"t. c #00096E",
"y. c #566B41",
"u. c #597443",
"i. c #4B6041",
"p. c #687544",
"a. c #757E46",
"s. c #636947",
"d. c #FE7C34",
"f. c #FE7D3D",
"g. c #F87B39",
"h. c #847E45",
"j. c #FD7E44",
"k. c #FF774C",
"l. c #FF7B4B",
"z. c #FE7F57",
"x. c #6D861B",
"c. c #7E801F",
"v. c #5D832B",
"b. c #568139",
"n. c #6C8425",
"m. c #648429",
"M. c #6C822C",
"N. c #69872A",
"B. c #748B26",
"V. c #74842D",
"C. c #7B832C",
"Z. c #738B2C",
"A. c #7C8B2C",
"S. c #798625",
"D. c #7A9527",
"F. c #668335",
"G. c #6C8234",
"H. c #6C8A34",
"J. c #6C833B",
"K. c #6D8A3D",
"L. c #658239",
"P. c #738433",
"I. c #7A8534",
"U. c #748A34",
"Y. c #7B8B34",
"T. c #73843B",
"R. c #7A843B",
"E. c #758B3B",
"W. c #7C8B3B",
"Q. c #7B913A",
"!. c #789334",
"~. c #6E8343",
"^. c #698447",
"/. c #758643",
"(. c #758A42",
"). c #7C8B42",
"_. c #7A8547",
"`. c #7B9249",
"'. c #758554",
"]. c #838E2C",
"[. c #8E8C28",
"{. c #83922E",
"}. c #8A9429",
"|. c #838C34",
" X c #8A8D35",
".X c #838C3B",
"XX c #8A8E3B",
"oX c #868539",
"OX c #928A38",
"+X c #849235",
"@X c #8B9335",
"#X c #84923B",
"$X c #8B933C",
"%X c #8C993C",
"&X c #899A38",
"*X c #919639",
"=X c #FD8436",
"-X c #FD823C",
";X c #F48439",
":X c #ED803B",
">X c #838D43",
",X c #898C47",
"<X c #928B4B",
"1X c #839442",
"2X c #8B9242",
"3X c #889645",
"4X c #919541",
"5X c #929847",
"6X c #F38544",
"7X c #FD8343",
"8X c #FE824B",
"9X c #FA8A4A",
"0X c #FF8251",
"qX c #020183",
"wX c #0A0283",
"eX c #01008A",
"rX c #03028B",
"tX c #0A0886",
"yX c #030192",
"uX c #0C0090",
"iX c #0102EC",
"pX c #0403EC",
"aX c #0102F5",
"sX c #0A00F3",
"dX c #0109F3",
"fX c #0202FC",
"gX c #0A01FE",
"hX c #0009FE",
"jX c #1201FD",
"kX c #F6FFEE",
"lX c #FEFFED",
"zX c #FDFEF4",
"xX c #FEF6FF",
"cX c #F4FEFE",
"vX c #FDFDFD",
"bX c #F4FEF3",
/* pixels */
"P z j ] [ E K - k ....T ..$._.@X}.1XP ( 2X|.&.R b v j ( >Xa.= z | Q u.) =.R I ~.+X..5 3 m D.!.` ..E P > I 1X=.b 3 0 &.3X",
"V.Z 7 A I  ...( ^ ..t t J G.5.+.L.5.R.>.M.^.{ ( A = ; A Y.x. .F V F T E ^.n.T J.9.:.=.A ' XX XI.G.[ R e.w.w.r.e.C 4.E.|.",
").d V x w J E &.T E [ 3 F F.V z x K .X%XT T 5._ : S < ^ I.:.{ u M x =.M.M.=.s.P f q.$X      uXe.e.qXeXe.e.qXe.e.E 1X#X|.",
"^.-.$.S ` @ o (.A.V.T < m ( j : _ J.) J ^ S O.W S H       o X   .       o         @   tXqXqXw.e.w.w.rXe.rXqXqXX E 4.4.4.",
"[ Z.a._ 7.    X   @ X l M : n V 4.    + X qXwXqXyXX qXe.wXw.eXX X wXyXqXqXqXe.yXe.] } w.w.eXrXqXqXeXqXX +   1._ [ E E 7.",
"T ..n.C.R.X % 2X Xp.X w I *.  + X qXeXe.qXwXw.e.e.wXqXwX  X   vX    w.wXwXqXrXw.wXrXqXe.qXrXw.A.w.qXX E.f $._ L Z E E R ",
"T ..&.#X    -.O W.5.` P 2.4XL 0   wXe.w.X     { 1.vXlX    zXzXxXvX  X wXw.tXe.X X   r.wXwXqXqXrX+ Y..X%X1Xi S 0 S { { R ",
"D C c     Y.I.  Y.J Z ' 0.+X-.7.} [ <.i ^ u.n.    vX@   @ zXvXvXvXvXX X yXX vX' E   X w.e.qXL     9.C.#X4./ 5 < z A S L ",
"x < z P 3..X$XO ).S ^ | #.3XW.U.X.[ E T ..=.|.2X+XvX    *   cXvXvX  vXX   vXvXvXvXvX  . 1.w.rXwXt.    . 0.B 4 = 4 2 j L ",
"P 2 7 j j U *.X %.U Z { I. X@X2X|.|.1.T U.E.T Y o vXo X o @ vXvXvXcXvXvX        vXcX/ 3.o Q.N.I.rXwXqX$.X X W M J T.R.I.",
"R 2 3 j j x C X -._ y _ 0..X|.>XOX X&.4.+XV.../ y     @ vX.   zXcXvXvXcX  X O   xXvXzXcXX . o X .       . +Xf k ;.2X2XI.",
"V S ` =.E ^ m X ) [ R F ) L L Z 6.#.~.G.P.6.p.x.>X  o   @ o vXvXvXvXxXvX# vX    & cXkX  vXf.=XH k + T .X|. X,X2.C.3XE.&.",
"H I +.B.M.j , X   Y | A z < 6 - ] Y `.B.I &.E.W.OX& X vXvXxXzXzXzXzXvXcX  cXo   X vXcX_ vX7Xl.8X  o S  X1X<X>X|.#XW.G.=.",
"W.W.I.Y.=.k 5._.  3X%.l b A 5 3 Z ) P.Y.` Y J ` OX+XvX  X $     X # X @ f.=XvX. vXvXcXvXvXf.8Xq .   . 7.4.D.@X.XT.I I { ",
"%X$X|.G.3.{ 4.@X    W.@ y.L e 0 u I P.4.E.J.t o.I.P.o     ;X;Xj.8X8Xg.z.-X-XX <.@.  cXvXj.=Xj.dXfXfXo fX! fX9.S.5.I 1.5.",
".X$X$XT Q (.I.}.%X% Y.  X                   { gX| P   x y.l.7Xf.-Xj.-X-Xg.0X3   -Xf.j.-Xf.j.gXaXfXfXX &.aXfXZ u.E R =.T ",
"6.3.3.R E >X|.}.+X X  X 7.I.gXfXgXS G.n.u.Y gXo   fXaXX =X8Xl.-XA f.7X0Xf.X 8Xf.8Xg.7X8Xd.7XX fXfXfXfX% X sXaX_ T J.{ A ",
"U H C R =..X5X,XXX  $ . 9.sXfX$XfX3 fX>XN fXfXY.C gXgXk.j.g.7Xx 8Xj.-Xd.g.@ 6XvXcXvXf.-Xk.=X  fXfX*.gXfXX O F.L &.T.{ = ",
"j P [ 7.=.Y.a.    Y.  6X8X7XaXfX4.fXY.aXfXfXfXsX4.hXfX  O f.7X8Xg.=Xf.8X8Xj.X vXzXvXvXxX8X6X. fXhXiXgXaXhXo #   4.4.1.L ",
"k X.[ ..3.P.p.  A I.7Xj.fXaXhXgXaX].fXgXiXfXhXfXdXaXhXfXfXj.;Xf.l.;X-X9X7Xd.;.vXvXzXxXzXW 8X  aXfXfXhXfXgXfXfX. P.K E 1.",
"L J C ( L I ( X   7Xd.7XaXfXfXiXfXgXaXfXhXH.fXfXfX  fXA fXgXl.=X    O   . cXvXzXvXvXvX  f.k.. fXfXaXfXhXaXL 0.  W.G.3.E ",
"_ J C ( ( 9 ; <   f.j.8XfXfXfXfXfXhXgXaXfXgX@.aXfXhXsXfXfXaXhX    E #XvXvXvXvXvXcXzXX . j.8X  fXjXgXfXfX0 gXT o .XI.P.#.",
"{ P [ [ R 4.3.1.. X -Xo T fXgXaXfXaXfXp.*.! fXfXjXfXfXaXfXaXfXgXgX  %   . bXzXzXvXO X X N.    o fXfXfXaX  (.E.O $X.X|.W.",
"{ { X.R T E.P.W.6.  7XO a iXfX .fXfXgXY W   1.fXfXfXfXfXfXK.fX*.fXcXkX  o vXvXvX      l.X   C.  fXfXfXaX  <XoXX  X*XXX$X",
"P [ R Q E 1.4./.C.R.  X 7.[ gXG gXaXZ.    v.fXfXfXgXfXfXaX-.fXfX    vX              X X {   X   ( fX=.fXfXX U   R R P.$X",
"^ { E { { E $.Y.|.3XR.+.  P R ) G.  X oX3.&.X fXfXfXfXfXfXfXfXdX@   vXzX  @ xXvXvX  L   I   . - 0 fXfXaXfX  n   l ( 4..X",
"j X.E S _ ).|.|.#X@X4XR.  x -.%.  . ` S 1 hXfX+XE fXz fXhXaXH.4.    vXvXxXxXvXvX=.O   fXhXfX  E.fXfXfXfXdX      I T.#X{.",
"j R E I 2.#X+X.X+X].oXC.%       X 2 9 C M fXfXsXfXfXiXfXfXaXY.T.@   vXvXvXzXvXzX+   X fXiXsXfX3XfXhXfXX gX. + e *.).E.P.",
"R R 3.T.Y.&XI.,.8.$X4XS.Q...J x 4 l / S 0 X hXfXfXdXaXfXaX|.U.G.  & vXxXvXvXzX  X fXjXfXfXgXfX,. .aXo X O   <.U.-.4.U x ",
"E { 3..X+X#X4.U p a.U.P.B.`.S < j q / P 1 fXgXfXgXK fXfXaXV.9.+ vXvXvXvXvXzX  o fXfXfXfXfXfXfXO X X   W.n.U +.&XM.T H L ",
"k U &.#XI.u U J.3.Z S ) &.A.^ 5 6.E.E.&Xh.fXgXaXfXaXgXfX8 z -   zXvXlXvXvXK   jXfXfXfXaXO C fX  O [ 8.,X.XK.V.g F q E (.",
"j ..&.Y.0.l j m.f 7 - F 2.].m - $.J.|.}.fXiXfXfXfXiXfXfXfX8 . vXvXvXvXzXvX% X T fXfXgXfXgXk aX'.U.a G.<XD.B.8.5./ = 2.#X",
"S ( L { [ < < ) / < ) U.$.#.n 5 l / q.dXgXfXgXfX_ sXfXaX{ vX  vXvXI o.zX    aXfXaXfXfXfXfXR %.U.V.&.-.&X@X$XP.&.` R Q | ",
"Z S L R R A A S A ; L #XB.T m - j c     fXfXhXiXfXdXA ' cX  vXvX#.o X   O fX9.fXfXaXdXaXy.R ! h.P.{ 5.E.P.).G.E 7.R Y { ",
"3.P P { Q [ [ { _ U 5.#XT._ E | A     H.fXfXgXgXgXfXU i.  # vXzX.   X -.d fXH $.gXfXiXfXs Q &.,XG.k h q C 1.E R [ R J j ",
"F.Z L P R { { E i H 5.V.U.3.( Y X.X Z.fXx fXt fXfXfXH aX. X o X   S.>.0.R fXfXgXfXfXgXfXfXR 2.Y.P.j < < z ) R 1.&.4.R z ",
"Q [ ..P L | | R | ( 1.{ _ I 3.1.  OXfXfXfXfXjXfXdX4.Y + . fX+ o j r < fXfXgXfXfXfX] aXfXG _ K Y.-.h 3 2 < j J K.I.Y.-.I ",
"E  . .L C L P 1.v.[ E 3.T =.( o aX@XfXH.gXfXfXfXfXm.fXfXX hXfXsX1 fXgX..gXY hXfXfXfXfXgXP y.=.A.P.x z 2 < h H 7.:.#XM.I ",
"| X.R E _ z L E.1.a { 1.a ~.=.X fXn.fXaXaXaXfXgXV.fXfXfX`.iXaXgXgXD K.fXdX2.aXfXgXfXsX  =.`.).Y.4.^ z - j x k 0 +.1XJ.L ",
"S { T T { l k -.0.4.4.G.~.!.T jXgXS.aXhXfXfXfXiXgXfXfXf gXfXfXfXx J &.fX..fXaXfXfX[ L.X *.oXP.0.R ^ z ; A ....j I E.=.Z ",
"2  .{ 1...S A ^ ..#X}.$X2XI.5.X fXiXfXfXfXfXfXfXfXv.iXfXfXfXgXaXfXgXfXdXfXW fXpX` D.{.  R.R W z z = 5 3 ,.$XI.[ ..T T ..",
"F =.=.R R T T P _ -.3.5.4.Y.1.X fXgXX aXgXaXgXfXK 5.hXfXfXiXfXpXfXfXfXi.P fXfX| Q T (.@ T.^ C E _ V D A &.+XV.{ { m.$.| ",
"| U.V.E | I.I.[ I w 3 z P M.0.s.! ..G fXaX+ X @ &   fXaXfXfXX fXaXfXfXgXfXgXfX{ T X %   $.j S /.J.R [ R -.#XU.E 3.U.3.[ ",
"| V.P.) ) Y.I.F w j 3 6 F =.K ` =.2.L.gX^.4.oX[.K 5.4XgXM.fXaXsXY gXaXaXgX  .     o X Y.U.= n Z.0.I [ { 3.T.4.E &.L.I S ",
"3.C.4.j A .XI.j j z z V J E P J L._.3X&X{.5X2XT.m.$..X>X XfX6.] R b.fXfXv.J.1.8.C.=.E S._.H L P.-.J ) ..{ &.&.*.T { L L ",
"W.|.G.2 C 2X.XJ [ P 3.#X0.S ) W R *.I.|.@X.X%.Q P.=.z L *Xc.S ( ( F ' U 2.X.p *.[ X.T P.$XC.].*X#XU.4.1.8.W.#X#X=.P I G.",
"#XU.L.j C W.Y.3.=.2.P.A.P.( ..Q { &./.n.E.W.&.u.a.8.1 N !.q.2.J s P 2._ `  .R X... .E 0.4X>X1XY.P.Y.V.&.:.&X@XXXG.k E Q.",
"I.#.X.^ L &.=.(.C.3X>XS.P.( ( E [ R I 1.E _ R ! q j 9 j S _ E.W.,X@X!.5.e e ; u.Y.G.E I.|.H < y _ P.+X.X$X{. X<X8.> _ Q.",
"P.{ ) J J E G.V.P..X.XY.T.L  .Q X.J &.E _ P 1.T 2 m < j ..R P.E.|.@X$X4.< 5 < { W.4.=.G.G.z 3 j J G.E.Y..XXX$X&X4.e { (.",
"q J.E.R =.>X/.U J 2.:.#XI.H 0.I.R E { P k j _ { 7.R < A E.M.=.4.$X$XXX8.j < < 1.+XW.P.#.H > j R { { E &.I.2XXX XT.I { E ",
"A 3.-.=.4.I.R._ [ R &.E.3.H 7.9.3.4.E ) z z (  .T Y V P G.-.E 7.XXXXXX0.k j Z &.|..XW.I A 3 j #.3.[  .E -.|.@X*XW.5.{ R ",
"1.S H >X.X#.=.U.K.E ( j 6 5 S J .XW.#.) 2 3 j q R 7.T.G.X.[ E 8.$X4X2XW.E 7.T.P.T -.T.L 1 4 S 1XU.E { { M.$X@X$XP.K R { ",
"K { 1.W.R.R E 3.=.{ { S A ) P =. X#X-.&.k j j C 4.4.W.Y.4.3.=.4. X@X|.P.E 4.E.%.{ G.W.T V F #.$XY.#. .) T Y.E.I.P.-.3.{ ",
"k >XW.T T E ( ~ y 1.8.#X$XXXXXXX X+XY.G.L ( _ 7.XXY.Y.W.#X#XP.Q.$X|.Y.G.T 3.E.M.| 3.P.-.4.1X XOXR.1. .) L E 1.1.V.1XT.{ ",
"L 0.T.R R 1.) z F { *.@X@X].XX XW.I.U.T.L P S [ $X+XY.E.V.V.4.U.$XY.E.3.K E 4.1.I R 1.I J I.I.R.T.E P [ { { E E *.E.3.( ",
"{ = j { R [ | #.R | T.#XA.Y.E.U.&.T T.J.L A - A U.W.$XY.L L 1.4.XX.X).&.Z P [ P S - 2 3 j E E  .R R =.E.J.&.-.U.G.T C z ",
"1.H H M.-.L ( | ..T &.K.H.I.W.Y.-.G.|  .A 5 A F Y..XR.3.( P -.P.%X|.9.` n ~ S ( L i #.L k { R Q [ { 3.3.G.E 1.8. .F P I ",
"U.R 5.3XU.q j E  .#.#.1.=.P.W.Y.%XI.H h < j I T #XR.-.K P | U.Y.$XV.&.L < = q S | E.1X5.L  . .E E E =.E &.R E 1.S V 2.>X",
"=.Z L 3.E h j P { P.3.[ T M.E.U.$X|.*.2.2.2.P.V.+XW.P.-.U | E.Y.P.V.P.5.S S S L F R 3.3.3.{ 1.P.P.P.4.R E R E R R J 9.2X",
"R z > 0 h b m A E Q.W.| R =.P.U.XX2X.X%X#X.X2X2XY..X3XW.{ R U.V.E P..XT.{ | [ F z < 0 -.!.&.2.{.$X2XT.&.{ { { R J.P.XXXX"
};
