/* XPM */
static char *_731b938d49d4112bce152fb99c9c5c7t2hiiPK0WpyzOdnY[] = {
/* columns rows colors chars-per-pixel */
"60 60 159 2 ",
"   c #1E150E",
".  c #1D1612",
"X  c #1F1812",
"o  c #22160E",
"O  c #26180F",
"+  c #2A190E",
"@  c #341C0E",
"#  c #211711",
"$  c #241A14",
"%  c #2C1D15",
"&  c #241E19",
"*  c #2B1F19",
"=  c #311E14",
"-  c #381F10",
";  c #321F18",
":  c #2C2116",
">  c #2D211A",
",  c #342216",
"<  c #3B2416",
"1  c #34231A",
"2  c #3B261B",
"3  c #37281D",
"4  c #3D291D",
"5  c #362720",
"6  c #3C2721",
"7  c #362A23",
"8  c #3D2B21",
"9  c #3D2F28",
"0  c #3C3127",
"q  c #3C312A",
"w  c #422617",
"e  c #42261B",
"r  c #432B1D",
"t  c #4A2D1D",
"y  c #502F1D",
"u  c #47311E",
"i  c #4D301E",
"p  c #52321F",
"a  c #442D22",
"s  c #4A2E21",
"d  c #512F23",
"f  c #453124",
"g  c #4C3223",
"h  c #4D3926",
"j  c #45342A",
"k  c #4C3529",
"l  c #44392C",
"z  c #4D392C",
"x  c #533424",
"c  c #593624",
"v  c #553926",
"b  c #5A3B26",
"n  c #523629",
"m  c #593729",
"M  c #553A2B",
"N  c #5B3D2A",
"B  c #433630",
"V  c #4B3730",
"C  c #463A32",
"Z  c #4D3C33",
"A  c #4B3E3A",
"S  c #533D32",
"D  c #5A3E31",
"F  c #623D26",
"G  c #613F2B",
"H  c #5D412D",
"J  c #5E412D",
"K  c #5F432E",
"L  c #4F4138",
"P  c #574032",
"I  c #554136",
"U  c #5B4131",
"Y  c #5F4231",
"T  c #5D4133",
"R  c #5E4332",
"E  c #594335",
"W  c #5F4335",
"Q  c #54443A",
"!  c #5B463A",
"~  c #5D493C",
"^  c #64412B",
"/  c #66442B",
"(  c #62422D",
")  c #62432E",
"_  c #65442F",
"`  c #6B452C",
"'  c #69462F",
"]  c #64482F",
"[  c #6A482F",
"{  c #604333",
"}  c #634531",
"|  c #614432",
" . c #654531",
".. c #614635",
"X. c #644536",
"o. c #694630",
"O. c #6A4634",
"+. c #664934",
"@. c #674934",
"#. c #6B4833",
"$. c #6D4B30",
"%. c #6C4C33",
"&. c #694934",
"*. c #6D4D35",
"=. c #6F4D34",
"-. c #6D4E37",
";. c #634739",
":. c #61493A",
">. c #664838",
",. c #634A3C",
"<. c #654A3C",
"1. c #634C3C",
"2. c #6B4D3A",
"3. c #684D3D",
"4. c #704F34",
"5. c #714D38",
"6. c #6C5237",
"7. c #67503E",
"8. c #6E5038",
"9. c #6D513B",
"0. c #735136",
"q. c #715237",
"w. c #725239",
"e. c #76543A",
"r. c #72533D",
"t. c #72533E",
"y. c #77573E",
"u. c #79563E",
"i. c #574944",
"p. c #5B4B41",
"a. c #634D42",
"s. c #655143",
"d. c #6D5143",
"f. c #6C5443",
"g. c #6F5443",
"h. c #6F5847",
"j. c #64544A",
"k. c #6C574B",
"l. c #67594D",
"z. c #6E5A4A",
"x. c #735542",
"c. c #735945",
"v. c #7A5A41",
"b. c #7E5A45",
"n. c #7D5D44",
"m. c #775748",
"M. c #735B4B",
"N. c #7A5D4C",
"B. c #755F51",
"V. c #7C5F53",
"C. c #73614F",
"Z. c #7C614E",
"A. c #756052",
"S. c #7B6353",
"D. c #7E6C5B",
"F. c #85614C",
"G. c #826656",
"H. c #806858",
"J. c #8B6A5D",
/* pixels */
"v.n.w.w.w.t.t. . .H N N Y Y N N M M N H H N b v N H U M f P :.3.d.X.Y Y N N M N N N N M N Y H M M N D M x M M M g f a 2 ",
"q.y.*.8.*.8.@.N | | M x x N N N H H H H N v c b H H M M f E ,.<.d.;.X.D g x n M M n n M M N N M M M N N M M n N k k k 8 ",
"q.y.%.*.#.&.N N N N n M M n g x v N N N N H N v N v g g r D X.X.<.D Y M t g n x g x n M n x M D M s g M M g g n s s s 4 ",
"q.q.4.F b #. .) N x x t t s g x M H ) N N N b p c v x g t M Y Y X.N x x x x x x x x s s g g g x x x x x c x t r x g r 4 ",
"4.$.*.^ / o.b ) N b c x x x x t x N H N c p p b b v x g t M N N 2.D t e t x x x x x x x x g s d x x t p p t p r x g e 4 ",
"e.[ ' F ^ _ b c b c t t i x g g v N N N b c b G M N N x t M W Y >.N x g x x g g x x x g g x s s x s t p y t p t x g t t ",
"v.*.&.) )  .N b N N x x x x s t t t t t p c b b x N M h r M U M n s t s g t t t t t t s g x s s s g g x c p t t x h t r ",
"2.2.2.X.Y N M x M M x g h g s s s t t t g x M M x M k a 2 z D g k g r e r s s s g g g g k M s r a t t g g t i i h k r 4 ",
";.Y D Y D k s s k k k g f f f a a s s s s s g s r 4 1 , 1 Z Q f f a 4 2 2 4 2 4 a f f f s a a a s a s g g t r r 2 1 , , ",
"z a 4 a a 2 1 2 4 a a 4 2 2 8 8 8 8 8 6 2 2 2 2 1 , % 1 7 A Q 9 1 = 1 2 1 = , 1 3 6 8 6 2 2 1 1 ; % = , , , , , + % % : ",
"a.a.a.a.a.~ ~ a.~ a.s.~ I ! p.p.~ Q Q Q Q ! I S S Z Z Q Q i.j.p.I S Q Q I I Q Q I Z Z Z I Q I Z z f k Z S z z z f l l l ",
"N.S.J.G.G.N.N.m.V.V.N.f.Y ! f.s.f.z.z.M.M.f.f.M.f.M.M.M.k.M.A.B.B.M.M.M.N.M.M.M.M.f.,.I I a.a.s.f.d.d.f.c.d.f.c.f.z.s.! ",
"F.b.F.b.b.t.5.2.x.x.2.{ x x Y | 6.8.6.8.8.&.@.8.&.8.x.t.*.v.x.8.x.9.2.9.x.9.*.2.x.8.X.M g U X.1.f.8.2.9.8.@.&.2.6.6.M z ",
"b.u.u.5.*.#.^ ^  .G N N g i N ) @.@.H H ) ) N N b )  ._ )  .) H ) N N )  ._ ) N ) Y Y M g M H ..@.| ) ) ) H N b H x e r ",
"y.y.*.5.#.*. .F ) M N U h g H H | H N b H ) N N ) ) ) ) ) ) N N H N N ^  ._ N b b N N M h M U | | H N N H H ) b H g w t ",
"w.w.%.*._ *.) H | N N H h h Y H ) H N N N ) ) )  . .) ) ) G N H H N N )  .^ F b N b M M h U H H Y H b N N ) H b Y g w t ",
"8.8.%.#.) ) N N Y H P P g h Y N H ) H N N N N N ) ) F F G N N N b b b N F b b b ) H N x g U N H Y H N b b N b x N x t s ",
"6.*.%.] ) H b N | H M v u h W N H | ) N v v x x b b b b b b N M v v b N b c c b ) H N x g D M U X.| N v x b c x x g g s ",
"8.#.*.) _ N b M H v x h r g U M N | H M x x x x c x b x x M M v x v N H b c c c b v x h g U M M Y X.N x x x x M t t s 2 ",
"w.#.&.F ) b c c N v g g r g H x M N N x g g x M x x x x x x x x x v N N b c p p c x g g t P n n D D M x s g x M s s s 2 ",
"t.*. .^ G b c m b M x s t g Y n M M M g t g x x x x g t s x g t x N N v c i t i v M h f a E M M D M g t g x x n n s 4 4 ",
"t.*.*.*.G m c m x n n g s k W n U U h e e s g s s g g g s s t t g M M x g t t t x M k f a ! M D E n e < t g g g g s a 8 ",
"2.| | | N m x x s n M n s g ! M D M s e r s s t t t s g g s t e t h g t r < w e s M M j a Q S M z r 2 r s r t 4 2 4 8 3 ",
"2.D Y X.D x s t e g z k a f E f k f 4 2 4 r r r r e e t s g s 4 4 r r 4 < < - @ , s k f 8 I j f a 2 < r t 2 4 , , 1 1 = ",
":.M M Y D g t k a j f 8 1 8 Z 4 j k 4 , 2 r a r a a r r r f f 4 2 2 2 , 2 , r r 3 8 8 1 1 Z 9 a j 4 2 4 r r r 4 2 1 , % ",
"S s 4 r f a a a 2 1 * : > 6 Z 4 3 4 2 1 , , , , 4 4 4 2 2 4 a 8 2 2 1 2 4 2 r 2 1 * * > 1 C q 6 3 1 2 4 2 , , , 1 1 > * ",
"f 4 , = 2 4 3 1 , , 1 0 l C Q l 4 , 3 a 4 2 2 2 4 8 a 8 a a 8 1 * * % = 2 , = = = * , 9 j Q Z 9 1 1 8 f 4 , 1 1 2 3 6 7 ",
"C.D.S.A.A.B.z.z.k.j.j.l.j.p.p.s.E I ~ ~ E ~ 1.~ ! ! ! ~ ,.1.s.a.~ ~ ~ 1.d.1.~ ! ~ ! ! ~ Q p.j.~ ! ! ~ W ! ,.~ ! ! ! ! Q ",
"c.N.Z.N.c.M.N.S.N.S.G.S.N.N.S.c.c.M.c.c.c.c.x.x.N.N.d.W M U 1.1.f.x.c.c.c.8.x.c.x.m.N.c.c.N.N.N.N.m.m.N.N.x.x.2.x.d.S z ",
"t.*.&.) ) | |  . .@.2.2.@.2.2.| @.@.| @.&.@._  .&.@.Y M g x | @.8.2.@.@.@.) ) ) ) &.&.#.&.*.o.O.O.| o.2.2.| o.G X.Y s s ",
"8.) H b N ) N b N N H H H ) ) N H N N ) _ ) ) N N H N M g M H Y @.| N N ) ) N b N N G G G ) N N N b F o.o.) N c M M t r ",
"*.) ) H ) @.) H |  .) ) ) | H H H N N )  . .) N b N N H M M N N | H N M H  .) G | ) ) ) ) G H H H N ) o.#._ N v M h r r ",
"*.) b c b ) N ) ) ^ ) N G N N N N N b G ^ ^ N c p x x M n M N N | | M c x M N G | | G G G G N N N b H H H H b v x g 4 4 ",
"#.b c p c N N b b N N N N N N N M m b N N b c x p x g n g M D N | | N c x c x c b b b G G N N v v v b N b v v v x u r 4 ",
"#.N b b H ) b c c b N N M N H N M n x M b c p x x x g n k D E M Y Y N x x x x x x M M m m N N v v b N N b c c v h u r 4 ",
"&.H ) ) ) b t p t p b v x x M M x g x x x t t t t g s s s D E M N N M x s s x x x x M x x M v x x b N N b c p x g t s r ",
"&.N c v v x i t t t t t t g x g n n g s t t t t s g s s a S E M n n g s s x n x x x x d d x s i x b b c c x p x x g s r ",
"*.H g x H N t t i t t t t g g s k n g s t t r e e s s g a S D k M x t e t x n g g s s s s x x x m N m c c x x x M x s 4 ",
"H g r g M v t t t t t s g n k s g g s s s s s t r s k z f S S n k g r r s g s g s s s s s g s s x m x x x d t g n k s a ",
"h < < t g g g < < 2 e r s k k a g s a s s s s 2 , r j k a Z S k s 2 2 s f r e r r r e e t s t e s s t t s t e t s a a 6 ",
"s s 2 < e s s 4 4 2 4 4 a s a 8 a 4 2 2 r r r 2 , 2 a 9 6 Z Z f j a 4 4 r r 2 2 r r r e e e e < 2 e < e t e t a a 2 2 1 ",
"a f 4 4 a r 2 2 2 2 1 1 1 2 3 8 8 4 2 4 r a a r 2 2 1 1 , q j 8 f a 2 , , , , 2 4 4 4 4 2 1 8 4 4 4 2 r s r 2 2 1 , , > ",
"1 = 1 4 4 , = 1 2 2 1 1 1 1 1 1 1 = = , , < , , = , , 1 7 B Z 8 , , 1 1 , + = , 1 2 2 2 2 2 1 * * = % , 2 , = * $ $ * > ",
"I E ! ! I I ! ~ ~ ~ ! Q S S Z z z j f k z z k f f a 9 z Z L ~ Z f f z z k k k k z z z z S S Z j j j f j z k j j q 0 q q ",
"Z.H.G.S.S.H.S.S.S.S.M.s.~ ! s.1.E W 1.f.d.3.f.f.d.7.1.s.s.s.f.f.1.3.d.f.9.x.8.8.d.f.1.E ! a.s.s.f.f.f.z.h.s.f.f.s.j.j.Q ",
"y.x.x.t.x.c.9.9.f.c.1.U h h W H g H @.9.@.@.8.8.8.8.8.8.8.8.t.x.t.*.w.u.u.q.$.4.*.t.;.s k P ! 3.x.d.t.x.t.@.*.8.d.d.d.W ",
"*.#._ H ) | H H H Y N M g g N M x H | @.| H H b b b b F ) ) ) ) ^ ^ ^ / ' ' / ' F ) N s a z U @.2. .) ) ) N N b v v x g ",
"#.) ) N ) | H v x M M M x g M x v H H | | H N b b b b b b N b N N b b F ^ ^ ^ ' N b N h s S D Y X.H b b N N N M x i t e ",
"#.) ) H ) | N v x M M M n h M g v N v N | H N N b b b b b b N N M b b F F F F ^ b x n s 4 S M N Y N v x N N N N M g t e ",
"_ N N N N v x x M M M n g g M g x x t x N M M v v x x c x c M N M c c F b c c F M g x s 4 S n M U N M x x v x x M g r 4 ",
") b N N M x g h n M k g r s M g h g t s x x x x x x x x v M M M n x c b c p c c x x s a 4 S k M D N M g g g g x h f 4 2 ",
"N M N M x x g g g k a s 4 a M g s s e s x x x g g g g x x M n n n g x x x t x t s s e 4 4 z k k M M h i t t g g f 4 < , ",
"N n M x g s s s a a a 4 2 8 k a r r 2 a g g g s s s s s g g g g g s t t t t g r s s r a 6 V f f k k g r e e t s r 2 , , ",
"N n n h s r a r 4 a a 4 1 6 a 8 4 2 2 2 r a s r r t a s s s s a a a e < e e r , a a 4 8 ; j a a j f r 4 r r s s 4 3 1 , ",
"M g g g r 2 4 4 8 9 a 6 , 1 6 1 1 2 1 2 8 a a 1 2 2 4 r r a 4 2 6 4 4 1 2 4 2 = 1 1 1 2 ; B a a f 8 2 4 4 4 4 3 2 1 , * ",
"M g g f 8 4 2 1 1 6 9 6 1 5 7 , 1 1 1 ; , 2 1 = 1 1 2 4 4 2 1 , 1 1 1 ; ; 1 1 % = * * , * j 8 6 8 2 , 1 2 3 1 , , , > * ",
"k s a 8 2 1 1 , , 1 5 1 1 5 7 > 1 1 > % % > > * , 1 1 2 2 1 , * 1 1 1 * * > * % % % % * $ 7 1 1 1 , = = 1 1 , = = * * % ",
"k a 8 8 3 1 1 1 , > > * $ * * # $ * % % % > * $ % * , , , = * > > > > * * $ $ $ $ $ % % # * % * , > * * * * * * * * % $ ",
"8 3 1 1 1 , > % $ $ # # # $ & $ $ $ $ $ $ $ $ o $ $ $ $ $ $ $ $ $ $ $ $ $ X . # . . $ # o $ $ % * % $ $ % $ % % % % $ # ",
"% + o $ $ o     . .   X $ & & & $ $ X $ $ # . . # # # # o o . . . . . . . . . X     # #   # # $ $ $ O $ $ O $ $ $ $ $ # "
};
